<?xml version="1.0" standalone="no"?>
<!DOCTYPE svg PUBLIC "-//W3C//DTD SVG 20010904//EN"
 "http://www.w3.org/TR/2001/REC-SVG-20010904/DTD/svg10.dtd">
<svg version="1.0" xmlns="http://www.w3.org/2000/svg"
 width="211.000000pt" height="211.000000pt" viewBox="0 0 211.000000 211.000000"
 preserveAspectRatio="xMidYMid meet">
<metadata>
Created by potrace 1.11, written by Peter Selinger 2001-2013
</metadata>
<g transform="translate(0.000000,211.000000) scale(0.100000,-0.100000)"
fill="#000000" stroke="none">
<path d="M876 1848 c-3 -13 -9 -59 -12 -103 -6 -61 -11 -83 -26 -93 -10 -7
-18 -24 -18 -37 0 -14 -7 -26 -19 -30 -32 -10 -111 -103 -136 -160 -84 -189
-43 -507 86 -675 l35 -45 -28 -23 c-15 -13 -28 -29 -28 -36 0 -7 -17 -18 -37
-24 -21 -7 -51 -20 -67 -30 -29 -17 -30 -17 -75 6 -90 46 -250 13 -333 -70
-65 -66 -101 -181 -84 -272 l7 -36 226 0 225 0 -4 80 c-2 44 0 80 3 80 4 0 18
-9 33 -21 23 -18 26 -28 26 -80 l0 -59 680 0 680 0 -2 183 -3 182 -58 29
c-119 60 -276 42 -368 -41 l-38 -34 -20 45 c-23 52 -65 82 -127 92 -31 4 -45
12 -53 30 -8 18 -26 28 -70 40 l-60 17 18 26 c57 80 70 184 53 421 -19 261
-83 383 -220 419 -22 6 -42 18 -45 25 -3 8 -16 16 -28 18 -17 2 -28 20 -53 90
-36 100 -50 121 -60 86z m58 -115 c26 -70 21 -83 -32 -83 l-34 0 7 88 c4 48
10 91 13 96 5 10 7 5 46 -101z m-121 -257 c7 -17 -19 -56 -37 -56 -8 0 -20 7
-27 16 -11 14 -10 19 10 35 28 22 47 24 54 5z m-73 -99 c0 -7 -13 -21 -30 -30
-33 -20 -38 -13 -14 21 17 24 44 30 44 9z m324 -3 c23 -22 20 -51 -9 -79 -48
-49 -115 -23 -115 45 0 20 3 40 7 43 13 14 101 7 117 -9z m-202 -30 c26 -56
-44 -114 -96 -80 -38 24 -37 80 2 94 51 19 81 14 94 -14z m-117 -207 c8 -52 4
-63 -19 -54 -24 10 -45 50 -52 101 l-7 47 36 -23 c30 -19 36 -30 42 -71z"/>
<path d="M997 1344 c-8 -8 1 -24 14 -24 5 0 9 7 9 15 0 15 -12 20 -23 9z"/>
<path d="M800 1315 c0 -8 5 -15 10 -15 6 0 10 7 10 15 0 8 -4 15 -10 15 -5 0
-10 -7 -10 -15z"/>
</g>
</svg>
